<svg xmlns="http://www.w3.org/2000/svg" id="Layer_1" data-name="Layer 1" viewBox="0 0 1080 1080" width="1080" height="1080"><metadata><rdf:RDF xmlns:rdf="http://www.w3.org/1999/02/22-rdf-syntax-ns#" xmlns:dc="http://purl.org/dc/elements/1.1/"><rdf:Description><dc:creator>RealFaviconGenerator</dc:creator><dc:source>https://realfavicongenerator.net</dc:source></rdf:Description></rdf:RDF></metadata><defs>
    <style>
      .cls-1 {
        fill: #bff474;
      }
    </style>
  </defs><rect width="1080" height="1080"></rect><g>
    <path class="cls-1" d="M615.77,794.05l36.57,1.94c-22.99-10.53-43.08-22.82-58.82-42.48,3.02-1.62,5.72-2.73,8.78-3.37,36.74,40.5,94.26,55.9,146.24,39.1,13.89-4.49,23.81-16.18,27.84-27.25,5.57-15.29,2.8-30.5-5.93-43.01-13.8-19.8-38-23.74-62.28-20.79-4.6-12.06-15.28-13.26-27.12-14.05l-20.01-6.17c-15.87-4.89-29.86-30.08-57.81-24.42l29.55-29.23c5.18-10.6,10.52-19.53,21.19-23.61,11.54-4.41,23.08-5.01,33.75,1.72,2.94,1.85,4.81,5.71,2.88,8.82-18.47-8.27-38.03-3.85-49.96,13.21,13.24.31,24.84,5.37,35.21,13.62l35.96,28.59c-4.11-13.35-7.55-23.68-6.28-37.13.95-10.1.72-20.96-2.11-30.82l-17.86-62.25c-7,24.3-21.36,43.7-41.35,57.16,3.11-9.87,8.52-15.64,14.06-22.78,11.81-15.22,20.84-32.91,20.58-52.85-.22-16.76-7.82-33.3-19.59-44.72-8.69-8.43-20.23-13.25-30.55-16.96,2.18,38.33,2.31,74.38,2.55,111.26,10.24-21.38,13.76-42.23,19.2-64.59,4.75,8.71,2.09,17.07.71,25.34-3.47,20.93-10.15,40.52-16.3,60.77-3.44,11.34-5.89,22.11-13.72,32.15l-1.16-167.99c-6.65-4.81-12.94-8.08-20.51-11.35.66,36.1,1.18,70.24-.2,105.87-.32,8.29-1.86,17.1-9.3,22.1l-.6-121.66c-.04-8.81-2.35-16.56-4.72-26.23l60.01,28.37c21.1,9.98,36.02,26.02,42.44,48.65l25.54,90.09c4.1,14.48,5.39,28.58,3.87,43.51-2.56,25.05,15.57,48.46,36.3,57.71,24.77,11.06,40.87,34.91,38.04,62.53-1.76,17.15-11.65,31.12-25.51,41.56,25.88,4.21,50.21,5.23,74.56,15.97l-173.54-.38-252.78-.07-166.79.59c3.49-2.47,7.13-4.26,10.82-5.17,20.73-5.11,40.68-8,62.99-10.95-14.82-11.23-24.44-26.97-25.49-44.23-2.05-33.58,21.01-56.59,54.61-65.33l42.36-11.03c32.88-8.56,54.32-36.84,54.16-71.51-13.69,22.11-26.73,51.2-54.2,50.25-21.24-.73-28.13-28.03-20.95-53.64l28.95-103.22c5.95-21.22,21.36-36.72,41.21-45.12s40.05-18.15,60.19-28.73c1.08,6.19-1.92,13.53-8.21,16.85-14.82,7.84-29.6,15.32-45.26,21.39-19.54,7.57-32.53,22.25-38.27,42.57l-25.16,89.08c-5.94,21.04-9.79,46.62,9.92,49.85-6.41-10.54-7.47-21.9-4.12-33.82l30.63-108.97c5.52-19.64,27.48-29.97,46.53-36.79,19.17,1.39,37.24,3.78,55.99,6.95l11.87,4.95c0-7.83-6.85-12.69-13.62-13.55l-39.93-5.05,15.43-8.28c9.48-5.09,12.68-14.3,14.83-24.66,9.97,11.71,20.45,18.98,33.14,22.15,1.55,6.06,9.37,3.92,12.88.65l-6.38-.5c2.08-.98,6.34-3.13,7.88-4.85l15.45-17.15,2.37,13.5c-14.14,20.6-30.72,38.63-49.98,54.86-2.12-3.97-5.71-7.4-9.33-8.29-5.97-1.46-9.01,3.46-13.2,5.79-5.88,3.28-11.18,4.99-13.45,12.37l-8.55,4.68c-4.66,9.62-7.24,18.71-9.33,29.28l-13.9,7.87-10.18-27.48c-.3-.82-1.77-2.55-2.31-3.09s-2.76,2.92-2.65,3.66l3.31,23.14c-3.44,14.45-9.11,28.24-14.25,42.06-15.89,3.91-31.5,8.16-37.88,23.64,14.37-6.82,27.46-12.07,42.55-15.87l27.04-6.81c-3.94,10.53-6.11,21.14-7.74,32.3-4.06,27.79-19.7,51.14-45.09,63.32-13.82,6.63-28.32,10.31-42.61,13.69l10.13,4.67-24.15,1.24c-14.41.74-28.14,7.75-37.47,18.67-10.43,12.2-14.15,27.92-9.32,43.89,3.95,13.05,15.31,25.68,30.83,30.14,35.92,10.31,74.47,7.58,108.82-7.54,23.53-10.36,40.98-28.23,54.48-49.63,4.94-7.84,12.11-11.85,20.52-10.32l-15.45,19.79c-16.33,25.13-39.2,42.71-66.91,53.71l39.49-2.34c15.81-.94,28.63-10.31,38.7-22.42,23.79-28.6,16.83-55.97,43.78-54.75-5.52,4.47-9.15,10.82-11.88,18.38-8.35,23.19-19.14,43.66-40.29,59.41l71.42.27c-9.91-8.05-17.73-15.62-24.77-26.38l10.59-3.69c10.39,16.98,27.07,28.6,47.4,29.68ZM729.12,685.99c-5.61-5.75-10.19-8.88-16.28-12.05-12.91-6.72-24.54-14.4-36.02-23.45-18.31-14.44-35.79-24.13-54.3-7.19,10.13,3.26,18.61,7.5,26.56,14.11,16.98,14.12,36.48,23.81,58.59,26.23l21.46,2.35Z"></path>
    <path class="cls-1" d="M543.65,424.43c-21.06.39-37.64-16.62-42.91-35.14-5.97-20.96-8.83-41.4-9.33-63.05-.73-31.59,24.95-54.78,56.09-52.29,27.91,2.23,47.86,24.16,47.45,52.21-.3,21.1-3.48,40.53-8.81,61.14-4.92,18.99-20.5,36.72-42.49,37.13ZM548.75,324.83c0-3.09-2.51-5.6-5.6-5.6s-5.6,2.51-5.6,5.6,2.51,5.6,5.6,5.6,5.6-2.51,5.6-5.6ZM531.62,346.32c1.75-.95,4.13-2.26,3.85-2.99-4.39-11.37-31.38-13.77-36.78-.61,12.56-2.43,23.43-6.06,32.92,3.59ZM557.66,343.91c8.78-6.35,18.38-2.68,29.84-1.64-9.12-13.88-33.52-10.42-39.93,4.42-3.81,8.83-2.4,19.19-1.02,28.46,8.97-4.5-1.23-22.32,11.1-31.24ZM527.49,353.54c-6.43,1.41-16.52-.26-25.47-2.17,4.17,9.35,19.87,11.19,29.46,5.27.97-.6-2.66-3.38-3.99-3.09ZM555.57,356.94c10.17,5.12,23.37,4.52,28.57-5.54-18.21,5.49-28.3-1.03-28.57,5.54ZM530.36,380.15c5.4,10.07,16.92,8.69,22.46,4.16,1.11-.91,2.18-3.15,2.51-4.13s-3.57-.51-4.56-.01c-11.14,5.53-14.53-2.84-20.41-.02ZM526.11,399.46l32.27.54c.7-.81,2.44-3.08,1.68-3.29l-3.65-1.01c-8.76-2.41-30.72-2.11-30.3,3.75ZM553.81,405.38l-21.24.45c5.16,8.14,17.28,7.26,21.24-.45Z"></path>
    <path class="cls-1" d="M789.13,784.41c45.97-49.29,77.42-107.59,91.16-172.98,24.69-117.49-13.71-240.11-100.9-322.51-39.35-37.19-86.6-63.93-138.24-79.8l2.87-13.67c150.08,44.12,254.27,180.97,257.67,337.94,2.03,93.91-33.22,184.72-96.68,254.08l-15.88-3.06Z"></path>
    <path class="cls-1" d="M297.64,784.94l-15.83,2.99c-63.47-69.24-99.29-160.36-97.35-254.55,3.24-157.07,108.22-294.04,258.09-338.04l4.18,13.55c-210.37,61.91-310.8,301.49-207.12,495.26,15.16,28.34,33.66,54.61,58.04,80.79Z"></path>
    <path class="cls-1" d="M597.5,271.22c-32.73-22.2-75.36-22.82-108.07-.12-.68,2.21-1.66,5.87-2.88,7.16-1.42,1.51-6.31,1.6-9.24,1.82-5.16,5.49-12.22,14.84-14.57,21.6-.57,1.64,2.05,6.91,1.23,8.43-.96,1.78-3.75,3.6-6.61,5.42-6.54,16.35-6.35,36.67-.71,53.24,4.05,1.48,7.66,5.15,6.88,8.5-1.04,4.51-4.86,5.73-10.38,5.39-2.16,2.64-5.58,9.33-6.46,12.68,2.74,5,2.9,8.73.95,14.08l17.28,19.47c-10.82-1.12-13.52-12.13-20.75-17.11-3.49-.17-9.63-.65-11.21-3.34-2.28-3.86-1.03-9.08,1.23-12.9-5.18-11.88-9.42-26.26-11.97-39.43-5.71-2.88-11.2-6.74-11.39-13-.22-6.99,4.84-11.39,11.39-13.51,2.22-13.78,6.59-28.79,12.35-41.65-2.3-3.91-3.77-8.7-2.15-12.01,2.01-4.09,7.9-4.81,12.53-4.52,8.69-8.88,18.36-17.97,27.9-25.57.15-3.84,1.18-9.29,3.52-10.89,3.46-2.37,9.16-1.19,12.94,1.4,12.26-5.23,26.96-9.2,40.56-10.99,1.89-6.18,6.14-11.42,12.43-11.91,7.32-.57,11.71,5.23,14,11.81,13.11,1.94,27.95,5.47,40.3,11.23,3.55-2.13,8.2-3.86,11.95-2.06,3.18,1.52,4.56,7.08,4.93,11.01l28.33,26.45c4.23-.78,9.36.13,11.23,3,2.64,4.06,1.15,9.04-1.46,13.06,5.62,12.74,9.77,27.88,12.38,41.45,6.53,2.55,11.84,6.71,11.39,13.71-.4,6.29-5.89,10.08-11.61,12.95-2.65,13.14-6.86,27.44-11.65,39.35,2.42,3.53,3.69,9.42,1.03,12.98-1.86,2.49-7.59,3.17-11.26,3.4-7.2,4.6-9.18,15.57-20.46,16.99l17.02-19.21c-1.88-5.25-1.95-9.29,1.53-14.09l-7.21-13.04c-5.49,1.24-9.31-.94-10.38-5.5-.65-2.76,3.49-6.66,6.62-8.41,6.32-16.2,5.92-35.92.2-52.57l-6.52-5.12c-1.53-1.2.84-6.94.77-8.99-2.54-6.79-9.72-16.63-15.33-21.31l-7.85-2.17c-1.56-.43-2.23-4.42-2.75-7.18ZM485.51,267.85l47.55-37.16c-15.73-2.62-29.19,4.36-41.9,9.35-1.16,5.1-3.22,7.91-6.5,11.59-2.51,2.81-2.37,11.99.85,16.22ZM633.61,298.94l6.08-10.65c-3.52-4.86-3.37-9.15-1.86-14.24-7.62-9.27-17.54-18.28-27.02-25.03-3.57,1.26-8.38,1.95-11.09.67-2.21-1.04-3.56-5.09-4.2-9.14-12.02-6.27-25.11-9.26-39.27-11.66l-1.38,3.45,44.62,34.54c2.92-.87,9-.52,10.36,1.67s1.15,6.65.99,9.36l14.76,19.21c1.1,1.44,2.18,2.85,3.08,3.5s4.39-.72,4.93-1.68ZM583.78,259.27c-10.06-9.01-20.58-16.9-31.07-24.16-6.35,5.77-13.58,4.64-19.56.06l-30.74,24.09c27.18-11.39,53.76-11.15,81.36.01ZM459.8,299.13c3.85-7.1,10.5-15.59,15.82-21.58-.94-4.31-1.65-9.74,4.26-11.95l.19-14.61c-1.01-.82-5.08-1.79-6.21-.94-8.17,6.24-19.05,15.89-25.46,23.99,1.33,5.39,1.89,9.45-1.9,14.34l6.63,11.41c.74,1.28,5.93.68,6.66-.67ZM450.03,312.26l.66-10.25-6.03-11.07c-.56-1.02-4.1-2.58-4.84-1.75l-3.15,3.53c-4.89,12.43-8.21,22.99-10.78,36.64l6.07,2.14,18.08-19.24ZM655.27,332.13l4.45-2.83c1.13-.72-4.81-26.93-11.87-39.34l-5.94-.61-6.16,12,.09,10.98,19.44,19.79ZM434.12,350.59l18.35,18.28c-4.6-19.54-4.18-34.62.25-54.48l-19.69,19.47c3.91,4.96,4.02,10.35,1.09,16.73ZM651.89,350.35c-3.39-6.81-2.46-11.15.52-16.94l-19.08-18.73c4.61,19.49,4.71,34.63.19,54.24l18.37-18.57ZM444.93,391.12l5.45-9.52-.48-10.45-15.68-16.21c-.9-.93-3.5-1.62-4.59-1.62-7.28-.05,4.54,38.64,9.98,40.57,1.2.43,4.59-1.5,5.32-2.77ZM642.74,394.04c1.34.3,6.16-1.6,6.88-3.29,5.77-13.58,13.41-36.6,6.8-37.45-1.4-.18-4.11.89-5.13,1.98l-15.74,16.74.16,10.2,7.04,11.81Z"></path>
    <polygon class="cls-1" points="379.3 950.17 399.56 903.02 359.56 930.3 350.22 926.5 344.53 878.81 322.57 922.99 305.13 913.94 342.36 838.86 358.22 846.3 364.98 906.87 414.39 872.57 430.76 879.98 397.13 957.69 379.3 950.17"></polygon>
    <path class="cls-1" d="M544.28,176.13l-47.14,3.42-7.31,21.04-23.65,1.64,36.8-99.23,24.05-1.96,52.03,93.28-24.38,1.54-10.4-19.73ZM534.86,159.09l-18.21-35.75-12.97,38.37,31.18-2.63Z"></path>
    <path class="cls-1" d="M688.71,822.19l28.91-.5c-106.05,66.97-241.51,67.11-348.7.24l26.95-.57c91.58,48.12,200.24,49.42,292.84.82Z"></path>
    <polygon class="cls-1" points="600.65 976.76 580.87 980.35 566.82 897.14 583.46 894.06 635.55 936.89 625.9 886.66 645.41 882.4 661.77 965.86 645.22 969.59 592.41 926.6 600.65 976.76"></polygon>
    <path class="cls-1" d="M517.74,973.89c-14.3,7.24-29.63,6.8-43.83,1.52-18.63-6.93-29.96-24.75-28.47-43.97,1.47-19.01,14.79-34.86,34.51-39.03,12.33-2.6,25.39-1.24,36.71,4.48,14.65,7.4,23.68,21.75,24.09,37.45s-7.67,31.79-23.02,39.56ZM520.38,935.06c0-15.11-12.25-27.36-27.36-27.36s-27.36,12.25-27.36,27.36,12.25,27.36,27.36,27.36,27.36-12.25,27.36-27.36Z"></path>
    <path class="cls-1" d="M727.1,941.37l-18.15,9.53-37.7-76.74,18-8.82,17.52,34.87,17.07-52.72,20.48-11.05-15.01,49.66,54.86,25.48-21.31,11.31-39.02-18.11c-8.58,16.9-5.39,19.79,3.27,36.61Z"></path>
    <path class="cls-1" d="M552.47,758.89l9.57-25.38c5.32-14.1,19.35-7.27,21.07-19.15,1.55-10.76,11.17-17.37,21.76-15.6,15.82,2.65,31.08.67,45.62-6.3,8.93-4.28,18.13-4.35,26.68,1.37l13.92.39c5.06.14,9.09,5.57,6.35,9.74-20.49.7-39.37,7.15-57.34,16.73-28.71,13.54-55.23,26.98-87.6,38.19Z"></path>
    <path class="cls-1" d="M467.35,617.03c-.1-13.53,2.4-25.7,9.65-35.67l2.96,3.55c.45.54,1.87,1.61,2.15.96s1.24-3.58,1.2-4.64l-1.06-33.26c-.45-14.12,1.04-27.95,9.41-39.3,5.81,6.97-.34,12.17-1.17,17.91-1.04,7.15-.5,13.66.03,21.54,1.95-.58,5.53-2.04,5.4-3.34l-.59-6.02c-.8-8.14,2.51-16.09,3.39-24.42.52-4.94.36-13.45,4.16-16.23.85-.62,3.78-.34,3.87.51l.47,4.3c-4.97,13.2-7.52,25.81-7.05,39.29l6.5-2.25c-3.24-17.32,6.4-29.98,7.33-47.94,1.27-.54,4.53-.58,4.74.61l1.08,6.09c-4.67,14.22-8.15,26.83-10.99,41.18l7.25-1.24,1.19,14.23c-10.59,4.15-15.8,15.09-11.66,25.53,6.92-.21,1.55-18.37,19.84-21.52,5.49-10.16,4.09-21.86,15.72-18.7l-8.39,30.53c-5.5,20.04-22.16,29.49-43.08,25.65,2.81,3.35,4.85,4.29,9.37,6.5l-31.73,16.15Z"></path>
    <path class="cls-1" d="M500.68,686.31c10.51-12.34,26.19,15.35,59.4.66l18.86-8.34c-5.02-3.94-9.6-3.81-15.58-3.46l-18.82,1.08c-1.67.1-5.03-2.85-5.34-4.37-1.54-7.56,14.69-3.45,25.02-7.59,15.2-6.1,30.05-5.94,44.16,3.49l3.34-4.57c2.63-3.6,17.38,4.04,26.39,11.87-8.59,4.18-18.29,13.06-27.97,13.42-13.11.48-20.88,3.05-32.3,8.86-9.21,4.69-24.04,3.42-34.72,3.58-9.53.14-18.15-2.79-26.05-6.63l-16.39-7.98Z"></path>
    <rect class="cls-1" x="565.38" y="141.95" width="96.22" height="23.21" transform="translate(359.89 732.9) rotate(-80.41)"></rect>
    <path class="cls-1" d="M576.63,622.22l-35.71,11.44c-1.63,7.48-5.34,14.42-13.58,13.88-7.31-.48-12.65-6.42-12.2-14.02s7.91-11.28,15.76-11.64l18.45-35.43c-2.81-5.99-5.73-13.08-.45-18.51,4.25-4.37,11.23-5.69,17.31-1.21,4.97,3.66,6.08,11.34,2.05,17.86l14.36,19.66c7.37-2.46,13.76.82,16.37,6.12,2.94,5.95.55,13.24-3.78,15.98-6.56,4.16-13.48,3.34-18.58-4.14ZM574.6,616.56l2.37-9.7-12.95-18.06c-2.22-.38-7.22.25-9.83,1.37l-16.67,31.94c-.77,1.48-.58,5.56.54,5.37l3.47-.59,33.06-10.33Z"></path>
    <path class="cls-1" d="M507.43,715.92c-40.63,1.53-75.07-13.14-114.46-15.16-2.04-2.48,1.18-8.04,4.6-8.28l15-1.07c18.75-14.38,32.85,9.49,70.85,4.9,12.15-1.47,21.91,5.86,24.01,19.61Z"></path>
    <path class="cls-1" d="M456.69,744.26c-19.67,18.73-66.29,35.3-91.29,21.28,42.17,1.36,71.7-12.6,101.23-43.08l11.5,1.38-21.44,20.42Z"></path>
    <path class="cls-1" d="M729.42,765.52c-11.12,7.07-24.11,5.67-36.26,3.92-24.81-3.57-46.18-15.46-64.29-32.2l9.32-3.87c25.29,22.53,56.62,33.28,91.23,32.15Z"></path>
    <path class="cls-1" d="M580.05,465.08c-15.12,17.97-30.87,33.5-48.17,47.77-2.31-.68-6.58-1.69-6.26-3.01l1.57-6.3c19.06-16.53,36.03-33.26,52.19-54.43l.66,15.97Z"></path>
    <path class="cls-1" d="M451.02,683.06l-11.76-4.46c24.93-9.25,39.25-30.31,40.98-56.56l10.97-6.24c-1.96,29.56-12.77,54.32-40.2,67.26Z"></path>
    <path class="cls-1" d="M549.72,537.09l-2.15-9.36,32.28-33.63.37,13.34c-9.64,10.63-18.47,19.35-30.5,29.64Z"></path>
    <path class="cls-1" d="M493.07,391.74c.45,1.91-4.83,3.97-5.63,2.98-6.13-7.51-.35-19.19-9.86-38.98-1.59-3.3-2.13-9.2-1-12.67.52-1.59,4.37-3.87,5.92-3.36,6.06,1.98.71,9.77,2.51,17.48l8.06,34.55Z"></path>
    <path class="cls-1" d="M608.5,356.01c-8.84,18.77-4.23,29.34-8.9,38.19-.67,1.28-6.87-.08-6.51-1.71l7.85-35.05c1.94-8.66-1.87-12.52,1.34-17.09.81-1.16,4.97.1,5.89,1.26,2.75,3.45,2.35,10.13.34,14.4Z"></path>
    <path class="cls-1" d="M375.18,721.32l-16.43,7.07c3.08-21.27,40.26-19.94,62.48-13.34-15.21.81-30.4,1.25-46.04,6.27Z"></path>
    <path class="cls-1" d="M729.1,729.4c-10.8-5.03-21.15-8.9-32.67-9.54l-25.83-1.43c13.65-4.65,27.63-6.1,41.86-4.38,7.4,3.01,16.22,4.99,16.64,15.34Z"></path>
    <path class="cls-1" d="M455.82,571.27c-2.54-5.91-.62-14.36,5.92-18.37l11.84-7.26-.33,12-17.43,13.62Z"></path>
    <path class="cls-1" d="M524.53,683.24l-20.17-7.76c7.67-6.11,24.6,2.41,37.33,10.25-5.22.45-11.35-.26-17.15-2.49Z"></path>
    <path class="cls-1" d="M538.27,532.03c-7.97,4.88-14.79-5.85-16.75-4.04l-5.31,4.92,3.75-14.79c9.06,2.82,12.9,6.26,18.31,13.91Z"></path>
  </g></svg>