<svg xmlns="http://www.w3.org/2000/svg" id="Layer_1" data-name="Layer 1" viewBox="0 0 1000 1000" width="1000" height="1000"><metadata><rdf:RDF xmlns:rdf="http://www.w3.org/1999/02/22-rdf-syntax-ns#" xmlns:dc="http://purl.org/dc/elements/1.1/"><rdf:Description><dc:creator>RealFaviconGenerator</dc:creator><dc:source>https://realfavicongenerator.net</dc:source></rdf:Description></rdf:RDF></metadata><defs>
    <style>
      .cls-1 {
        fill: #bff474;
      }
    </style>
  </defs><path class="cls-1" d="M772.66,733.43c3.11-30.39-14.6-56.63-41.85-68.8-22.8-10.18-42.75-35.94-39.94-63.5,1.68-16.43.26-31.95-4.25-47.88l-28.1-99.13c-7.06-24.9-23.48-42.55-46.69-53.53l-66.03-31.22c2.61,10.64,5.15,19.17,5.19,28.86l.66,133.86c8.18-5.5,9.88-15.2,10.23-24.31,1.51-39.21.94-76.77.22-116.48,8.32,3.59,15.25,7.2,22.56,12.49l1.28,184.84c8.61-11.05,11.31-22.89,15.09-35.37,6.76-22.28,14.11-43.83,17.93-66.86,1.51-9.11,4.45-18.3-.78-27.89-5.99,24.61-9.87,47.55-21.13,71.07-.26-40.58-.41-80.25-2.81-122.42,11.36,4.09,24.05,9.38,33.62,18.66,12.95,12.57,21.32,30.77,21.56,49.2.29,21.94-9.66,41.41-22.65,58.15-6.1,7.86-12.05,14.21-15.47,25.07,22-14.81,37.8-36.15,45.5-62.89l19.65,68.49c3.11,10.84,3.36,22.8,2.32,33.91-1.4,14.8,2.38,26.17,6.91,40.86l-39.57-31.46c-11.42-9.08-24.18-14.64-38.75-14.99,13.13-18.77,34.65-23.64,54.97-14.54,2.12-3.41.06-7.66-3.17-9.7-11.75-7.41-24.44-6.75-37.14-1.9-11.74,4.49-17.61,14.32-23.32,25.98l-32.51,32.16c30.75-6.24,46.15,21.48,63.61,26.87l22.02,6.79c13.02.87,24.78,2.2,29.84,15.46,26.71-3.25,53.34,1.1,68.52,22.88,9.6,13.77,12.64,30.5,6.52,47.33-4.43,12.18-15.35,25.04-30.64,29.98-57.18,18.49-120.48,1.55-160.9-43.02-3.37.7-6.34,1.92-9.66,3.7,17.32,21.63,39.43,35.16,64.72,46.74l-40.23-2.13c-22.36-1.19-40.72-13.97-52.15-32.65l-11.66,4.07c7.75,11.83,16.36,20.16,27.26,29.02l-78.58-.3c23.26-17.33,35.13-39.86,44.33-65.37,3-8.32,7-15.31,13.07-20.22-29.65-1.34-21.99,28.78-48.17,60.24-11.08,13.32-25.19,23.64-42.58,24.67l-43.45,2.58c30.49-12.1,55.65-31.45,73.62-59.1l17-21.77c-9.24-1.68-17.14,2.73-22.57,11.35-14.85,23.55-34.05,43.21-59.94,54.6-37.8,16.64-80.22,19.64-119.74,8.3-17.08-4.9-29.58-18.8-33.92-33.16-5.31-17.57-1.22-34.87,10.25-48.29,10.26-12.01,25.37-19.73,41.23-20.54l26.57-1.36-11.15-5.14c15.72-3.71,31.67-7.77,46.88-15.06,27.93-13.4,45.14-39.09,49.61-69.67,1.79-12.29,4.18-23.96,8.52-35.54l-29.75,7.5c-16.6,4.18-31,9.95-46.82,17.46,7.02-17.04,24.2-21.71,41.68-26.01,5.65-15.2,11.9-30.38,15.68-46.28l-3.64-25.46c-.12-.81,2.33-4.62,2.92-4.02.6.6,2.21,2.5,2.55,3.4l11.2,30.24,15.3-8.66c2.3-11.63,5.14-21.62,10.27-32.21l9.41-5.15c2.5-8.13,8.33-10.01,14.8-13.61,4.61-2.57,7.95-7.98,14.52-6.37,3.98.97,7.94,4.76,10.26,9.12,21.19-17.85,39.44-37.69,55-60.36l-2.6-14.85-16.99,18.87c-1.7,1.89-6.38,4.25-8.67,5.33l7.02.55c-3.86,3.6-12.47,5.94-14.17-.72-13.96-3.48-25.5-11.48-36.46-24.37-2.36,11.4-5.88,21.53-16.31,27.13l-16.97,9.11,43.93,5.56c7.45.94,15,6.29,14.99,14.91l-13.07-5.45c-20.64-3.49-40.52-6.11-61.61-7.64-20.97,7.5-45.12,18.86-51.2,40.47l-33.7,119.9c-3.69,13.11-2.51,25.62,4.54,37.21-21.68-3.55-17.45-31.7-10.91-54.85l27.69-98.01c6.32-22.36,20.61-38.51,42.11-46.84,17.23-6.67,33.49-14.91,49.8-23.53,6.92-3.66,10.23-11.73,9.04-18.55-22.16,11.64-43.36,21.93-66.23,31.61-21.84,9.25-38.8,26.3-45.34,49.64l-31.85,113.57c-7.9,28.18-.32,58.21,23.05,59.02,30.23,1.05,44.58-30.97,59.64-55.29.18,38.15-23.42,69.26-59.59,78.68l-46.61,12.14c-36.96,9.62-62.33,34.93-60.08,71.89,1.16,18.99,11.74,36.31,28.05,48.67-24.55,3.25-46.5,6.43-69.31,12.05-4.06,1-8.06,2.97-11.9,5.69l183.52-.65,278.13.07,190.94.41c-26.79-11.82-53.56-12.94-82.03-17.57,15.25-11.48,26.14-26.86,28.07-45.73ZM681.09,657.28c-24.33-2.67-45.78-13.32-64.47-28.86-8.74-7.27-18.07-11.94-29.22-15.52,20.38-18.65,39.61-7.98,59.75,7.91,12.63,9.96,25.42,18.42,39.63,25.81,6.71,3.49,11.75,6.93,17.92,13.26l-23.61-2.59Z"></path><path class="cls-1" d="M557.07,263.96c.44-30.87-21.5-55-52.21-57.45-34.26-2.74-62.52,22.78-61.71,57.54.55,23.82,3.7,46.31,10.27,69.37,5.8,20.37,24.04,39.09,47.21,38.66,24.19-.45,41.34-19.96,46.75-40.85,5.87-22.67,9.36-44.05,9.7-67.27ZM548.88,281.67c-12.61-1.14-23.18-5.18-32.84,1.8-13.57,9.82-2.35,29.42-12.22,34.38-1.53-10.2-3.08-21.6,1.12-31.32,7.05-16.32,33.9-20.13,43.93-4.86ZM513.49,323.39c-.37,1.08-1.55,3.55-2.77,4.55-6.09,4.98-18.77,6.5-24.71-4.58,6.47-3.1,10.2,6.1,22.46.02,1.09-.54,5.39-1.06,5.02.01ZM500.07,256.32c3.4,0,6.16,2.76,6.16,6.16s-2.76,6.16-6.16,6.16-6.16-2.76-6.16-6.16,2.76-6.16,6.16-6.16ZM451.17,282.18c5.93-14.49,35.63-11.84,40.46.67.31.8-2.31,2.24-4.24,3.29-10.44-10.61-22.41-6.63-36.23-3.95ZM454.82,291.69c9.85,2.1,20.95,3.94,28.03,2.39,1.46-.32,5.45,2.74,4.39,3.4-10.55,6.52-27.82,4.49-32.41-5.79ZM488.43,351.61l23.37-.49c-4.35,8.48-17.69,9.45-23.37.49ZM516.83,345.2l-35.51-.6c-.46-6.44,23.7-6.78,33.34-4.13l4.02,1.11c.84.23-1.08,2.73-1.85,3.62ZM513.75,297.82c.3-7.24,11.4-.05,31.44-6.1-5.72,11.07-20.25,11.72-31.44,6.1Z"></path><path class="cls-1" d="M871.03,577.84c-15.12,71.95-49.73,136.1-100.31,190.33l17.48,3.37c69.82-76.32,108.61-176.23,106.38-279.56-3.74-172.71-118.38-323.29-283.51-371.83l-3.16,15.05c56.81,17.46,108.81,46.88,152.1,87.8,95.93,90.67,138.18,225.59,111.02,354.86Z"></path><path class="cls-1" d="M229.95,768.74c-26.82-28.81-47.17-57.71-63.86-88.9-114.07-213.2-3.58-476.81,227.9-544.93l-4.6-14.91C224.49,168.42,108.98,319.13,105.42,491.95c-2.14,103.64,37.28,203.89,107.11,280.08l17.42-3.29Z"></path><path class="cls-1" d="M378.25,208.7c-1.79,3.65-.16,8.92,2.36,13.22-6.34,14.15-11.14,30.66-13.59,45.83-7.2,2.33-12.77,7.17-12.53,14.86.21,6.88,6.24,11.13,12.53,14.3,2.81,14.5,7.48,30.32,13.18,43.39-2.5,4.19-3.87,9.94-1.36,14.19,1.74,2.95,8.5,3.49,12.34,3.67,7.95,5.48,10.93,17.6,22.83,18.83l-19.01-21.43c2.15-5.88,1.97-9.98-1.04-15.49.98-3.68,4.74-11.04,7.11-13.95,6.08.37,10.27-.97,11.42-5.93.85-3.69-3.12-7.73-7.57-9.36-6.21-18.23-6.42-40.59.78-58.58,3.14-2,6.21-4.01,7.27-5.97.9-1.68-1.98-7.48-1.35-9.28,2.58-7.44,10.35-17.73,16.03-23.77,3.22-.25,8.6-.35,10.16-2.01,1.34-1.42,2.42-5.45,3.17-7.88,36-24.98,82.89-24.3,118.91.13.57,3.03,1.31,7.43,3.03,7.9l8.64,2.39c6.17,5.15,14.08,15.97,16.87,23.45.08,2.26-2.52,8.57-.84,9.89l7.17,5.63c6.28,18.32,6.73,40.01-.22,57.84-3.45,1.93-8,6.21-7.28,9.25,1.18,5.01,5.38,7.41,11.42,6.05l7.93,14.35c-3.83,5.28-3.75,9.73-1.69,15.51l-18.73,21.14c12.41-1.56,14.59-13.63,22.52-18.69,4.04-.25,10.34-1,12.39-3.74,2.92-3.92,1.52-10.39-1.14-14.28,5.27-13.1,9.9-28.83,12.82-43.29,6.29-3.16,12.33-7.33,12.77-14.24.49-7.71-5.35-12.28-12.53-15.09-2.87-14.94-7.44-31.6-13.62-45.61,2.87-4.42,4.51-9.91,1.61-14.37-2.05-3.16-7.7-4.15-12.36-3.3l-31.17-29.1c-.41-4.33-1.93-10.44-5.43-12.12-4.13-1.98-9.24-.08-13.15,2.26-13.58-6.34-29.92-10.23-44.34-12.36-2.51-7.24-7.35-13.62-15.4-12.99-6.91.54-11.6,6.3-13.67,13.1-14.96,1.97-31.13,6.34-44.62,12.09-4.15-2.86-10.42-4.16-14.23-1.54-2.57,1.76-3.71,7.76-3.88,11.98-10.49,8.37-21.14,18.37-30.7,28.14-5.1-.31-11.58.47-13.79,4.98ZM599.29,251.32l20.99,20.61c-3.28,6.38-4.29,11.14-.57,18.64l-20.21,20.43c4.98-21.58,4.86-38.24-.21-59.68ZM617.22,335.02c-.79,1.85-6.09,3.94-7.57,3.61l-7.75-12.99-.17-11.23,17.32-18.42c1.12-1.19,4.11-2.37,5.65-2.17,7.28.93-1.13,26.26-7.48,41.2ZM608.75,223.45l6.53.68c7.76,13.65,14.3,42.5,13.06,43.29l-4.89,3.11-21.38-21.78-.09-12.08,6.78-13.21ZM514.49,156.94c15.58,2.63,29.99,5.93,43.21,12.83.71,4.45,2.19,8.91,4.62,10.05,2.98,1.41,8.27.64,12.2-.74,10.43,7.43,21.35,17.34,29.73,27.54-1.66,5.6-1.82,10.32,2.05,15.67l-6.69,11.72c-.6,1.05-4.44,2.56-5.43,1.85-.98-.71-2.17-2.27-3.39-3.85l-16.24-21.14c.18-2.98.33-8.01-1.09-10.3-1.5-2.41-8.19-2.8-11.4-1.84l-49.09-38,1.51-3.79ZM510.6,163.77c11.54,7.99,23.11,16.67,34.18,26.59-30.37-12.28-59.62-12.55-89.52-.01l33.82-26.51c6.57,5.04,14.53,6.29,21.52-.06ZM435.72,181.95c3.62-4.05,5.88-7.14,7.16-12.75,13.98-5.49,28.79-13.17,46.1-10.29l-52.32,40.88c-3.55-4.65-3.7-14.75-.94-17.84ZM382.91,227.16l3.47-3.89c.82-.92,4.72.8,5.33,1.92l6.63,12.18-.73,11.28-19.89,21.17-6.68-2.35c2.83-15.01,6.49-26.63,11.86-40.31ZM392,335.42c-.8,1.4-4.53,3.51-5.85,3.04-5.98-2.13-18.99-44.69-10.98-44.64,1.2,0,4.06.76,5.05,1.79l17.25,17.84.53,11.5-6,10.48ZM400.3,310.94l-20.19-20.11c3.22-7.02,3.1-12.95-1.19-18.41l21.66-21.43c-4.87,21.85-5.33,38.44-.27,59.94ZM395.84,206.62c7.05-8.92,19.03-19.53,28.02-26.4,1.23-.94,5.72.13,6.83,1.03l-.21,16.08c-6.5,2.43-5.73,8.4-4.69,13.15-5.86,6.59-13.17,15.93-17.41,23.74-.8,1.48-6.51,2.14-7.33.74l-7.29-12.55c4.17-5.38,3.55-9.84,2.09-15.77Z"></path><polygon class="cls-1" points="304.03 902.9 296.6 836.25 279.15 828.07 238.19 910.68 257.38 920.63 281.54 872.03 287.8 924.5 298.08 928.68 342.08 898.67 319.79 950.54 339.41 958.82 376.41 873.31 358.41 865.16 304.03 902.9"></polygon><path class="cls-1" d="M449.46,102.63l51.87-3.76,11.45,21.71,26.83-1.7-57.25-102.63-26.46,2.15-40.49,109.18,26.02-1.8,8.04-23.15ZM470.91,40.8l20.04,39.33-34.31,2.89,14.27-42.22Z"></path><path class="cls-1" d="M660.23,809.73c-101.88,53.47-221.44,52.04-322.21-.91l-29.65.63c117.94,73.57,266.98,73.42,383.67-.27l-31.81.55Z"></path><polygon class="cls-1" points="591.12 880.66 601.74 935.93 544.43 888.8 526.12 892.19 541.58 983.75 563.35 979.8 554.27 924.61 612.38 971.91 630.59 967.81 612.59 875.98 591.12 880.66"></polygon><path class="cls-1" d="M470.93,891.92c-12.46-6.29-26.83-7.79-40.39-4.93-21.7,4.58-36.36,22.02-37.97,42.94-1.64,21.15,10.83,40.76,31.33,48.38,15.62,5.81,32.48,6.3,48.22-1.67,16.88-8.55,25.79-26.12,25.33-43.52-.46-17.27-10.38-33.06-26.51-41.2ZM444.92,964.02c-16.63,0-30.11-13.48-30.11-30.11s13.48-30.11,30.11-30.11,30.11,13.48,30.11,30.11-13.48,30.11-30.11,30.11Z"></path><path class="cls-1" d="M721.41,825.4l-22.53,12.16-18.78,58.01-19.28-38.36-19.8,9.7,41.49,84.44,19.97-10.48c-9.53-18.5-13.04-21.68-3.6-40.28l42.94,19.93,23.44-12.44-60.36-28.03,16.51-54.64Z"></path><path class="cls-1" d="M662.83,668.93l-15.31-.43c-9.41-6.29-19.53-6.21-29.35-1.5-16.01,7.67-32.79,9.84-50.2,6.93-11.65-1.95-22.23,5.32-23.94,17.16-1.88,13.07-17.33,5.55-23.18,21.07l-10.52,27.92c35.62-12.34,64.8-27.13,96.39-42.02,19.77-10.54,40.55-17.64,63.09-18.4,3.02-4.59-1.42-10.56-6.98-10.72Z"></path><path class="cls-1" d="M441.27,559.07c23.02,4.22,41.35-6.18,47.4-28.23l9.23-33.6c-12.8-3.48-11.26,9.4-17.3,20.58-20.13,3.46-14.21,23.45-21.83,23.68-4.56-11.48,1.18-23.52,12.83-28.08l-1.31-15.65-7.98,1.37c3.13-15.79,6.96-29.66,12.1-45.31l-1.19-6.7c-.23-1.3-3.82-1.26-5.21-.67-1.02,19.76-11.64,33.7-8.07,52.75l-7.15,2.48c-.51-14.83,2.29-28.71,7.76-43.23l-.52-4.73c-.1-.94-3.33-1.25-4.26-.57-4.19,3.05-4.01,12.42-4.58,17.85-.97,9.17-4.61,17.92-3.73,26.87l.65,6.62c.14,1.42-3.8,3.03-5.94,3.67-.59-8.67-1.18-15.84-.04-23.7.92-6.31,7.68-12.03,1.29-19.71-9.21,12.49-10.85,27.7-10.35,43.24l1.17,36.6c.04,1.16-1.02,4.38-1.32,5.1-.31.71-1.87-.46-2.36-1.06l-3.25-3.91c-7.98,10.97-10.74,24.36-10.62,39.24l34.91-17.77c-4.98-2.44-7.22-3.46-10.31-7.15Z"></path><path class="cls-1" d="M575.53,634.79l-3.68,5.03c-15.53-10.38-31.87-10.55-48.59-3.84-11.37,4.56-29.22.04-27.53,8.36.34,1.67,4.04,4.91,5.87,4.8l20.71-1.18c6.58-.38,11.62-.53,17.15,3.81l-20.75,9.18c-36.54,16.17-53.79-14.3-65.35-.72l18.03,8.78c8.69,4.23,18.17,7.45,28.66,7.3,11.75-.17,28.07,1.22,38.2-3.94,12.57-6.4,21.12-9.22,35.54-9.75,10.65-.39,21.33-10.17,30.77-14.76-9.91-8.61-26.14-17.02-29.04-13.06Z"></path><rect class="cls-1" x="524.53" y="61.27" width="105.87" height="25.53" transform="translate(408.28 631.11) rotate(-80.41)"></rect><path class="cls-1" d="M543.5,569.94l-15.8-21.64c4.44-7.18,3.21-15.63-2.26-19.65-6.7-4.93-14.37-3.48-19.05,1.33-5.81,5.97-2.6,13.77.5,20.36l-20.3,38.99c-8.64.4-16.84,4.33-17.34,12.81-.5,8.36,5.38,14.9,13.42,15.42,9.06.59,13.15-7.05,14.94-15.28l39.3-12.58c5.61,8.23,13.23,9.13,20.45,4.56,4.76-3.01,7.38-11.04,4.16-17.59-2.88-5.83-9.91-9.43-18.02-6.73ZM534.68,583.48l-36.38,11.36-3.82.65c-1.23.21-1.44-4.27-.59-5.91l18.34-35.15c2.87-1.24,8.37-1.93,10.81-1.51l14.25,19.88-2.61,10.67Z"></path><path class="cls-1" d="M460.77,692.81c-2.32-15.14-13.05-23.2-26.42-21.58-41.81,5.05-57.32-21.21-77.96-5.39l-16.51,1.18c-3.76.27-7.3,6.38-5.06,9.11,43.35,2.22,81.24,18.36,125.94,16.68Z"></path><path class="cls-1" d="M404.95,723.98l23.59-22.46-12.65-1.52c-32.49,33.53-64.98,48.89-111.38,47.4,27.5,15.43,78.8-2.8,100.44-23.41Z"></path><path class="cls-1" d="M594.4,716.26c19.93,18.43,43.44,31.51,70.74,35.43,13.36,1.92,27.66,3.46,39.89-4.32-38.08,1.24-72.55-10.59-100.37-35.38l-10.26,4.26Z"></path><path class="cls-1" d="M482.53,459.12l-1.73,6.93c-.36,1.45,4.34,2.56,6.88,3.31,19.04-15.69,36.37-32.78,53-52.56l-.73-17.57c-17.79,23.29-36.45,41.71-57.43,59.89Z"></path><path class="cls-1" d="M385.77,651.73l12.94,4.91c30.17-14.25,42.07-41.48,44.23-74.01l-12.07,6.86c-1.91,28.88-17.67,52.06-45.09,62.23Z"></path><path class="cls-1" d="M507.31,496.03c13.23-11.32,22.95-20.92,33.56-32.62l-.41-14.68-35.51,37,2.37,10.3Z"></path><path class="cls-1" d="M433.34,278.86c-1.7-.56-5.94,1.95-6.51,3.7-1.24,3.81-.64,10.3,1.1,13.94,10.46,21.77,4.1,34.62,10.85,42.89.89,1.09,6.69-1.18,6.2-3.28l-8.87-38.01c-1.98-8.48,3.9-17.05-2.76-19.23Z"></path><path class="cls-1" d="M562.19,338.82c5.14-9.74.06-21.37,9.8-42.02,2.21-4.7,2.65-12.04-.37-15.84-1.02-1.28-5.59-2.66-6.48-1.39-3.53,5.03.66,9.28-1.47,18.81l-8.63,38.57c-.4,1.79,6.42,3.28,7.16,1.88Z"></path><path class="cls-1" d="M365.92,691.84c-24.44-7.26-65.36-8.73-68.74,14.68l18.08-7.77c17.21-5.52,33.92-6.01,50.66-6.9Z"></path><path class="cls-1" d="M686.37,690.76c-15.66-1.9-31.05-.31-46.06,4.82l28.42,1.57c12.67.7,24.07,4.96,35.94,10.49-.46-11.39-10.16-13.57-18.31-16.88Z"></path><path class="cls-1" d="M410.5,513.43c-7.19,4.41-9.3,13.7-6.51,20.21l19.18-14.99.36-13.21-13.03,7.99Z"></path><path class="cls-1" d="M498.46,659.59c-14.01-8.62-32.63-18-41.07-11.28l22.2,8.54c6.39,2.46,13.13,3.23,18.87,2.74Z"></path><path class="cls-1" d="M470.44,491.44l5.84-5.42c2.15-2,9.66,9.81,18.43,4.45-5.95-8.41-10.17-12.2-20.14-15.3l-4.13,16.27Z"></path></svg>